<?xml version="1.0" encoding="UTF-8" standalone="no"?>
<svg
   viewBox="0 0 64 64"
   version="1.1"
   id="svg334"
   sodipodi:docname="Extension.svg"
   inkscape:version="1.2.2 (b0a8486541, 2022-12-01)"
   xml:space="preserve"
   inkscape:export-filename="Extension.png"
   inkscape:export-xdpi="1500"
   inkscape:export-ydpi="1500"
   xmlns:inkscape="http://www.inkscape.org/namespaces/inkscape"
   xmlns:sodipodi="http://sodipodi.sourceforge.net/DTD/sodipodi-0.dtd"
   xmlns:xlink="http://www.w3.org/1999/xlink"
   xmlns="http://www.w3.org/2000/svg"
   xmlns:svg="http://www.w3.org/2000/svg"><defs
     id="defs338"><linearGradient
       inkscape:collect="always"
       id="linearGradient1200"><stop
         style="stop-color:#9b1526;stop-opacity:1;"
         offset="0"
         id="stop1196" /><stop
         style="stop-color:#ca1428;stop-opacity:1;"
         offset="1"
         id="stop1198" /></linearGradient><linearGradient
       inkscape:collect="always"
       xlink:href="#linearGradient1200"
       id="linearGradient1202"
       x1="0"
       y1="64"
       x2="64"
       y2="0"
       gradientUnits="userSpaceOnUse" /></defs><sodipodi:namedview
     id="namedview336"
     pagecolor="#ffffff"
     bordercolor="#666666"
     borderopacity="1.0"
     inkscape:showpageshadow="2"
     inkscape:pageopacity="0.0"
     inkscape:pagecheckerboard="0"
     inkscape:deskcolor="#d1d1d1"
     showgrid="false"
     showguides="true"
     inkscape:zoom="7.3750001"
     inkscape:cx="33.220339"
     inkscape:cy="29.830508"
     inkscape:window-width="1440"
     inkscape:window-height="831"
     inkscape:window-x="0"
     inkscape:window-y="0"
     inkscape:window-maximized="1"
     inkscape:current-layer="svg334" /><path
     fill="#FF8700"
     d="M0 0h64v64H0z"
     id="path330"
     style="fill:url(#linearGradient1202);fill-opacity:1" /><path
     id="path477"
     style="color:#000000;fill:#ffffff;stroke-linecap:round;stroke-linejoin:round;-inkscape-stroke:none"
     d="m 15.333388,11.755859 a 2,2 0 0 0 -2,2 2,2 0 0 0 2,2 h 0.208984 v 32.601563 h -0.208984 a 2,2 0 0 0 -2,2 2,2 0 0 0 2,2 h 6.417968 a 2,2 0 0 0 2,-2 2,2 0 0 0 -2,-2 H 21.542372 V 15.755859 h 0.208984 a 2,2 0 0 0 2,-2 2,2 0 0 0 -2,-2 z" /><path
     id="path1126"
     style="color:#000000;fill:#ffffff;stroke-linecap:round;stroke-linejoin:round;-inkscape-stroke:none"
     d="m 28.791015,11.755859 a 2,2 0 0 0 -2,2 2,2 0 0 0 2,2 H 29 v 32.601563 h -0.208985 a 2,2 0 0 0 -2,2 2,2 0 0 0 2,2 h 6.417969 a 2,2 0 0 0 2,-2 2,2 0 0 0 -2,-2 H 35 V 15.755859 h 0.208984 a 2,2 0 0 0 2,-2 2,2 0 0 0 -2,-2 z" /><path
     id="path1128"
     style="color:#000000;fill:#ffffff;stroke-linecap:round;stroke-linejoin:round;-inkscape-stroke:none"
     d="m 42.248643,11.755859 a 2,2 0 0 0 -2,2 2,2 0 0 0 2,2 h 0.208985 v 32.601563 h -0.208985 a 2,2 0 0 0 -2,2 2,2 0 0 0 2,2 h 6.417969 a 2,2 0 0 0 2,-2 2,2 0 0 0 -2,-2 H 48.457628 V 15.755859 h 0.208984 a 2,2 0 0 0 2,-2 2,2 0 0 0 -2,-2 z" /></svg>
